<?xml version="1.0" encoding="utf-8"?>
<!-- Generator: Adobe Illustrator 23.0.3, SVG Export Plug-In . SVG Version: 6.00 Build 0)  -->
<svg version="1.1" id="Layer_1" xmlns="http://www.w3.org/2000/svg" xmlns:xlink="http://www.w3.org/1999/xlink" x="0px" y="0px"
	 viewBox="0 0 4096 2160" style="enable-background:new 0 0 4096 2160;" xml:space="preserve">
<style type="text/css">
	.st0{fill:url(#SVGID_1_);stroke:#000000;stroke-miterlimit:10;}
	.st1{fill:url(#SVGID_2_);stroke:#000000;stroke-miterlimit:10;}
</style>
<image style="display:none;overflow:visible;enable-background:new    ;" width="737" height="454" xlink:href="CB5FCC3B.jpeg"  transform="matrix(3.2384 0 0 3.2384 730.9737 388.3109)">
</image>
<linearGradient id="SVGID_1_" gradientUnits="userSpaceOnUse" x1="116.1176" y1="1443.7585" x2="2575.1543" y2="640.7546" gradientTransform="matrix(1 0 0 -1 0 2160)">
	<stop  offset="0.1778" style="stop-color:#FB1BC3"/>
	<stop  offset="0.9492" style="stop-color:#631FB9"/>
</linearGradient>
<path class="st0" d="M1389.4,619.5l32.6-65.1c0,0,72.9,78.5,120.4,82.5c47.6,4.1,98.2,7.3,126.8-10.7c28.5-18,130-115.6,138.4-126.1
	c8.5,12.7,22.2,44.8,22.2,44.8S1662.9,686.5,1643.9,697c-19,10.5-75,25.3-138.4,7.4C1442.1,686.5,1389.4,619.5,1389.4,619.5z
	 M1578.4,930.5c78.2,12.7,161.6-20.1,187-42.3c25.3-22.2,143.7-189.1,143.7-189.1l-25.4-62.2c0,0-82.4,121.3-128.9,168.9
	c-46.5,47.6-114.1,54.9-201.8,50.7c-87.7-4.2-217.6-127.8-217.6-127.8l-20.1,35.9c0,0,66.6,64.5,85.6,81.3
	C1419.9,862.9,1500.2,917.8,1578.4,930.5z M984.1,1612c80.8,39.1,223.5,102.5,230.9,102.5c7.4,0,164.8,71.9,164.8,71.9l89.8,44.4
	v-19c0,0-433.2-197.6-492.3-245.1c-25.9-11.9-53.9-59.2-138.4-75c-81.3,0-374,0-374,0v37h341.3
	C806.1,1528.5,779.7,1505.3,984.1,1612z M1075.5,1268.6c-64.5-37-52.8-54.9-154.2-130c-101.4-75-140.5-74-140.5-74H451.1v28.5
	c0,0,284.2-11.6,369.8,19c85.6,30.6,138.4,105.6,175.4,130c37,24.3,168,149,193.4,166c25.4,17,307.5,158.4,307.5,158.4l20.1-18.4
	c0,0-76.1-40.7-102.5-52.4c-26.4-11.6-172.2-83.5-190.2-100.4C1206.5,1378.5,1139.9,1305.6,1075.5,1268.6z M884.3,1631
	c-21.1-2.1-595.9,4.2-595.9,4.2v35.9h588.5c0,0,4.2-12.7,47.6,15.9c43.3,28.5,293.7,143.7,293.7,143.7s245.1,89.8,311.7,99.3
	c61.2,8.8,60.8,16.6,60.3,17.8l15.8-24.1c0,0-441.6-145.8-490.2-178.6C1067,1712.3,905.4,1633.1,884.3,1631z M983.6,1100.6
	c63.4,51.8,138.4,91.9,180.7,140.5c42.2,48.6,157.4,136.3,188.1,153.2c30.6,16.9,187,88.7,196.5,88.7c9.5,0,9.5,0,9.5,0l-8.4-35.9
	c0,0-271.5-109.9-312.7-159.5c-41.2-49.7-178.6-174.3-209.2-190.2C997.3,1081.6,812.4,926.3,805,922c-7.4-4.2-76.1-12.7-123.6-10.5
	c-47.5,2.1-514.5,10.5-514.5,10.5v31.9l617,4.4C783.9,958.3,920.2,1048.8,983.6,1100.6z M998.9,1483.1
	c150.6,108.8,297.9,162.1,297.9,162.1s221.9,119.5,280.5,119.5c6.3-14.3,12.7-30.1,12.7-30.1s-370.8-124.1-519.8-251.4
	c-52.3-21.1-228.2-140-259.9-138.4c-31.7,1.6-813,9.5-813,9.5v35.9h811.4C808.7,1390.1,848.4,1374.3,998.9,1483.1z M777,1251.2
	c139.4,17.4,156.9,74.5,213.9,104.6c57.1,30.1,161.7,120.4,239.8,175.9c78.2,55.5,238.8,126.8,238.8,126.8v-22.2
	c0,0-79.2-38-96.7-44.4c-17.4-6.4-149-100.4-149-100.4s-71.3-74-110.9-89.8c-39.6-15.9-131.5-107.8-177.5-138.9
	c-46-31.1-161.6-56-161.6-56l-674.6-9.7v52.5l338.6-6.3C437.9,1243.2,637.6,1233.7,777,1251.2z M1625.2,154.5l-18.8,39.1h44.4
	L1625.2,154.5z M810.3,815.4c23.3,4.2,47.6,57,110.9,80.3c63.4,23.2,155.3,147.9,181.7,166.9c26.4,19,209.2,173.3,245.1,207.1
	c35.9,33.8,251.4,120.5,251.4,120.5s0-16.9,0-28.5c-25.4-1.1-94-41.2-147.9-62.3c-53.9-21.1-169.4-105.6-169.4-105.6
	s-106.4-105.7-123.3-127.8c-16.9-22.2-134.2-126.8-134.2-126.8s-130-115.2-165.9-136.3c-35.9-21.1-79.2-20.2-79.2-20.2H303.2v34
	C303.2,816.4,787.1,811.1,810.3,815.4z M1995.7,1725.5c56,11.1,246.2,67.1,333.9,67.1s130-34.9,130-34.9l-50.7-99.3
	c0,0-64.5,51.8-149,58.1c-84.5,6.4-125.7-20.1-211.3-39.1c-85.6-19-139.4-6.7-139.4-6.7l-110.9,6.7l22.2,43.3
	C1820.3,1720.8,1939.7,1714.4,1995.7,1725.5z M984.1,1925.7l-268-7.4l-25.2,40.1h285.2c0,0,72.9-1.1,114.1,14.8
	c41.2,15.9,64.5,27.5,64.5,27.5h79.2c0,0-87.7-53.9-154.3-64.5C1013.1,1925.7,984.1,1925.7,984.1,1925.7z M1800.2,1408.1
	c44.4,1.1,96.1-6.4,121.5-16.9c25.4-10.6,121.5-20.1,162.4-40.2c40.9-20.1,96.5-137.3,96.5-137.3l-49.7-96.1
	c0,0-108.8,206-228.2,241.9c-119.4,35.9-266.2,6.3-266.2,6.3l28.5,53.9C1665,1419.7,1755.9,1407,1800.2,1408.1z M784.4,1777.8
	l-21.7,37h188.6c0,0,13.2-1.1,39.6,10.6c26.4,11.6,126.8,45.4,126.8,45.4l106.7,45.4l70.8,37l14.8-20.1c0,0-322.2-122.5-358.7-151.1
	C911.7,1777.8,784.4,1777.8,784.4,1777.8z M1520.3,1111.2c12.7,2.1,174.3,38,255.7-12.7c81.3-50.7,77.1-70.8,110.9-115.2
	c33.8-44.4,108.8-124.7,108.8-124.7s-41.2-80.3-44.4-76.1c-3.2,4.2-100.4,139.4-104.6,152.1c-67.6,125.7-128.9,128.9-128.9,128.9
	s13.7,10.6-126.8,5.3c-140.5-5.3-323.9-211.9-323.9-211.9l-22.6,48.2c0,0,45.4,44.3,95,88.7
	C1389.3,1038.3,1507.6,1109.1,1520.3,1111.2z M2371.8,1933.1c118.3,1.1,163.7-44.2,163.7-44.2s-16.9-31.9-22.2-45.6
	c-101.4,67.6-150,43.3-239.8,31.7c-89.8-11.6-294.3-93-294.3-93h-125.2l8.5,31.7h149C2011.5,1813.7,2253.5,1932.1,2371.8,1933.1z
	 M1952.4,1962.7l8.5,18c0,0,40.1-7.4,86.6,0c46.5,7.4,75,18,75,18h16.9c0,0-66.6-30.6-93.5-31.7
	C2018.9,1965.9,1952.4,1962.7,1952.4,1962.7z M2558.8,1933.1c0,0-157.4,42.2-275.8,14.8c-118.3-27.5-263.1-90.3-263.1-90.3l-119.4,9
	l7.9,21.1h119.9c0,0,131,71.8,269.4,105.6c138.4,33.8,286.3-13.7,286.3-13.7L2558.8,1933.1z M741.6,671.7
	c110.6,14.1,138,51.4,162,70.4c23.9,19,175.4,149.3,175.4,149.3s176.8,183.8,190.9,196.5c226.8,179.6,381.7,190.9,381.7,190.9
	s128.2,2.1,163.4,0c35.2-2.1,102.8-33.8,123.3-43c20.4-9.1,73.3-62,81-80.3c7.8-18.3,43-147.2,43-170.4
	c-4.9,13.4-90.9,133.8-125.4,166.2c-34.5,32.4-120.4,75.4-145.1,78.9c-145.1,20.4-147.2,6.3-288.8-44.4
	c-141.6-50.7-267.6-192.3-275.4-202.1c-7.7-9.9-128.9-141.6-128.9-141.6S855,663.9,833.9,649.1c-21.1-14.8-37.3-12-37.3-12H502.2
	v34.5C502.2,671.7,635.3,673.1,741.6,671.7z M1629.8,456.1c55.6,1.4,143-39.4,143-39.4l-41.6-67.6c0,0-21.8,38-90.2,42.9
	c-68.3,4.9-113.4-42.9-113.4-42.9s-43,85.6-50.7,101.8C1486.1,458.6,1574.1,454.7,1629.8,456.1z M2172.1,1542.2
	c20.1-9.5,94-164.8,94-164.8l-26.4-45.4c0,0-53.9,101.4-107.8,122.6c-53.9,21.1-69.7,10-151.1,0c-84.5,14.8-117.3,20.1-117.3,20.1
	h-171.1l22.2,45.4c0,0,221.9,0,300,1.1C2089.7,1552.8,2152.1,1551.7,2172.1,1542.2z M2062.3,1626.7c14.8,7.4,130,60.2,203.9,39.1
	c74-21.1,98.2-99.3,98.2-99.3s-33.8-54.9-43.3-75c-1.1,21.1-56,113-108.8,121.5c-52.8,8.5-65.5,4.2-136.3-20.1
	c-70.8-24.3-102.5-18-136.3-18c-33.8,0-188.1,8.4-188.1,8.4l19.6,33.3c0,0,155.8-1.6,177-2.7
	C1969.3,1613,2047.5,1619.3,2062.3,1626.7z"/>
<linearGradient id="SVGID_2_" gradientUnits="userSpaceOnUse" x1="2700.9163" y1="1081.5559" x2="4098.6611" y2="1081.5559" gradientTransform="matrix(1 0 0 -1 0 2160)">
	<stop  offset="0" style="stop-color:#FF1BC3"/>
	<stop  offset="1" style="stop-color:#3920B6"/>
</linearGradient>
<path class="st1" d="M2753.2,174.1c28.5-15.3,225-8.5,225-8.5s-68.1,25.4-95.1,20.6s-182.2,28.5-182.2,28.5v-28.5
	C2700.9,186.2,2724.7,189.4,2753.2,174.1z M2700.9,275v38c0,0,74.5-30.1,234.5-28.5c42.8-17.4,234.5-74.5,339.1-77.7
	c104.6-3.2,486.5,32.8,612.2,115.2c0,0-71.8-105.6-249.3-125.7c-177.5-20.1-243-30.6-389.8-6.8s-219.8,24.8-287.4,45.9
	S2700.9,275,2700.9,275z M2700.9,366.9v44.4c0,0,263.1-12.5,332.8-8.6c57.1-13.6,372.4-85.6,516.6-53.6
	c149,13,404.1,65.3,418.4,79.6c14.3,14.3-53.8-69.4-423.1-139.5c-44.4-9.5-332.8-13.7-538.8,32.8
	C2800.7,368.5,2700.9,366.9,2700.9,366.9z M2700.9,476.2v30.1c0,0,188.6-57.1,356.6-30.1c155.3-45.9,545.2-85.6,974.6,96.7
	c0-7.9,0-33.3,0-33.3s-383.5-229.8-963.5-115.7C3014.7,423.9,2800.7,430.3,2700.9,476.2z M2700.9,598.2V668c0,0,164.8-90.3,355-85.6
	c190.2-39.6,635.5-90.3,987.3,129.9c0-52.3,0-50.7,0-60.2s-378.8-233-928.7-120.4C3017.9,515.8,2843.5,500,2700.9,598.2z
	 M2700.9,753.5v50.7c0,0,212.4-158.5,543.6-168c0-23.8,0-23.8,0-23.8S3038.5,593.5,2700.9,753.5z M4032.1,772.6
	c-1.6-9.5-267.1-166.7-581.6-160.8c0,0,63.4,16.5,72.9,38.7c46,0,440.6,106.2,499.2,164.8 M2700.9,961.2v46
	c0,0,244-255.1,543.6-253.6c0-22.2,0-52.3,0-52.3S2921.2,685.4,2700.9,961.2z M3989.3,881.9c3.2-6.3-318.5-163.2-450.1-161.6
	c0,0,0,19-19,39.6c34.9,0,320.1,66.6,437.4,160.1 M2700.9,1227.4V1332c0,0,32.8-366.5,599-477.9c58.6-15,408.9-7,599,138.8
	c11.1-6.3,25.4-19,25.4-19S3697.7,790,3277.8,820.1C3195.4,828,2856.2,855,2700.9,1227.4z M2700.9,1823.3v101.4
	c0,0,139.5-109.3,147.4-228.2c7.9-118.9,0-291.6,0-291.6s63.4-302.7,396.2-404.1s586.4,60.2,586.4,60.2l25.4-17.4
	c0,0-292.6-206.8-643.4-98.2s-393,494.7-393,494.7S2838.8,1745.6,2700.9,1823.3z M2756.4,1992.8h33.3c0,0,194.9-116.3,231.4-432.9
	c36.5-316.6,213.9-437.1,318.5-456.1c104.6-19,309-17.4,372.4,28.5c20.6-7.9,42.8-20.6,42.8-20.6s-212.4-136.5-476.2-37.3
	c-263.9,99.1-303.5,283-358.9,618.9C2916.4,1704.4,2864.1,1926.3,2756.4,1992.8z M2972.7,1992.8c56.3-31.7,170.4-215.5,192.5-322
	c22.2-106.5,79.2-251.6,79.2-251.6v-112.6c-187,171.2-193.3,372.4-199.7,467.5s-120.4,218.7-120.4,218.7 M3062.2,1992.8h58.6
	c0,0,110.9-110.9,123.6-150.6c0-49.7,0-101.4,0-101.4S3182.7,1885.1,3062.2,1992.8z M3244.5,1959.5l-26.9,33.3h26.9V1959.5z
	 M3298.4,1262.3l20.6,44.4c0,0,142.6-155.3,453.2-22.2c-7.9-15.9-30.9-53.9-30.9-53.9S3531.3,1127.6,3298.4,1262.3z M3846.7,1419.2
	c0,0-321.7-188.7-480.2-15.9l46,88.2c0,0,117.3-263,486.5,56.6 M3482.2,1645.1l38,71.9c0,0,49.1-160.1,188.6-104.6
	c139.5,55.5,253.6,204.4,312.2,380.3c31.7,0,77.7,0,77.7,0s-190.2-423.1-377.2-454.8C3534.5,1506.3,3566.2,1495.6,3482.2,1645.1z
	 M3578.9,1829.6l33.3,71.3c0,0,137.9-131.5,252,91.9c34.9,0,71.3,0,71.3,0s-91.9-246.2-242.5-237.2
	C3640.7,1755.4,3578.9,1829.6,3578.9,1829.6z"/>
</svg>
